<svg width="24" height="27" viewBox="0 0 24 27" fill="none" xmlns="http://www.w3.org/2000/svg">
<path d="M4 12.25C3.58579 12.25 3.25 12.5858 3.25 13C3.25 13.4142 3.58579 13.75 4 13.75L4 12.25ZM20.5303 13.5303C20.8232 13.2374 20.8232 12.7626 20.5303 12.4697L15.7574 7.6967C15.4645 7.40381 14.9896 7.40381 14.6967 7.6967C14.4038 7.98959 14.4038 8.46447 14.6967 8.75736L18.9393 13L14.6967 17.2426C14.4038 17.5355 14.4038 18.0104 14.6967 18.3033C14.9896 18.5962 15.4645 18.5962 15.7574 18.3033L20.5303 13.5303ZM4 13.75L20 13.75L20 12.25L4 12.25L4 13.75Z" fill="black"/>
</svg>
