<svg width="24" height="24" viewBox="0 0 24 24" fill="none" xmlns="http://www.w3.org/2000/svg">
<path fill-rule="evenodd" clip-rule="evenodd" d="M3.75 3C3.55189 3.00259 3.36263 3.08244 3.22253 3.22253C3.08244 3.36263 3.00259 3.55189 3 3.75V20.25C3.00259 20.4481 3.08244 20.6374 3.22253 20.7775C3.36263 20.9176 3.55189 20.9974 3.75 21H20.25C20.4481 20.9974 20.6374 20.9176 20.7775 20.7775C20.9176 20.6374 20.9974 20.4481 21 20.25V3.75C20.9974 3.55189 20.9176 3.36263 20.7775 3.22253C20.6374 3.08244 20.4481 3.00259 20.25 3H3.75ZM15.75 18.27H18.75V13.64C18.75 11.05 17.28 9.86 15.41 9.86C14.8849 9.80905 14.3563 9.91248 13.8891 10.1576C13.4219 10.4028 13.0365 10.7789 12.78 11.24V9.94H9.83C9.83 10.63 9.83 18.27 9.83 18.27H12.78V13.67C12.7648 13.4707 12.7886 13.2703 12.85 13.08C12.9537 12.7866 13.1461 12.5328 13.4005 12.3536C13.655 12.1744 13.9588 12.0788 14.27 12.08C15.27 12.08 15.77 12.85 15.77 13.98L15.75 18.27ZM6.82 8.89C7.0195 8.90916 7.2208 8.88676 7.4112 8.8242C7.60161 8.76165 7.77698 8.6603 7.92624 8.52656C8.0755 8.39282 8.19542 8.22959 8.27842 8.04717C8.36143 7.86475 8.40571 7.66711 8.40849 7.46671C8.41126 7.26631 8.37246 7.06752 8.29454 6.88287C8.21662 6.69822 8.10126 6.53174 7.95576 6.39392C7.81025 6.25609 7.63776 6.14993 7.44916 6.08213C7.26056 6.01433 7.05995 5.98637 6.86 6C6.6572 5.98059 6.45257 6.00355 6.25911 6.06741C6.06565 6.13128 5.88757 6.23467 5.73619 6.37101C5.5848 6.50735 5.46341 6.67367 5.37971 6.85942C5.29602 7.04516 5.25184 7.24628 5.25 7.45C5.25069 7.65011 5.2928 7.8479 5.37367 8.03094C5.45453 8.21398 5.57241 8.37831 5.71988 8.51357C5.86735 8.64883 6.04123 8.7521 6.23056 8.81688C6.41989 8.88167 6.62058 8.90656 6.82 8.89ZM8.22 9.89H5.59V18.22H8.22V9.89Z" fill="black"/>
</svg>
