<svg width="24" height="24" viewBox="0 0 24 24" fill="none" xmlns="http://www.w3.org/2000/svg">
<path fill-rule="evenodd" clip-rule="evenodd" d="M21 6.78C20.3279 7.08458 19.6128 7.28359 18.88 7.37C19.6546 6.89178 20.2301 6.14941 20.5 5.28C19.7788 5.71916 18.9872 6.0304 18.16 6.2C17.8181 5.82332 17.4014 5.52205 16.9365 5.31544C16.4716 5.10882 15.9687 5.00139 15.46 5C14.9688 5.00652 14.4838 5.10973 14.0325 5.30374C13.5813 5.49774 13.1726 5.77874 12.83 6.13068C12.4873 6.48262 12.2173 6.89862 12.0355 7.35491C11.8536 7.8112 11.7634 8.29884 11.77 8.79C11.7681 9.07967 11.8017 9.36849 11.87 9.65C10.3887 9.56251 8.94299 9.16054 7.62911 8.47084C6.31524 7.78114 5.16332 6.81953 4.25 5.65C3.92393 6.23391 3.75186 6.89122 3.75 7.56C3.74246 8.18624 3.889 8.80473 4.17673 9.361C4.46446 9.91728 4.88455 10.3943 5.4 10.75C4.81036 10.7306 4.23408 10.5694 3.72 10.28C3.71508 11.1507 4.01093 11.9964 4.55754 12.6742C5.10415 13.352 5.868 13.8203 6.72 14C6.39363 14.0861 6.05753 14.1298 5.72 14.13C5.47964 14.1474 5.23808 14.1373 5 14.1C5.22502 14.8457 5.67965 15.5014 6.29912 15.9737C6.91859 16.4459 7.6713 16.7106 8.45 16.73C7.15079 17.7799 5.53042 18.3518 3.86 18.35C3.57267 18.3479 3.28564 18.3312 3 18.3C4.68011 19.4074 6.64778 19.9984 8.66 20C15.45 20 19.17 14.23 19.17 9.23C19.17 9.06 19.17 8.9 19.17 8.74C19.8909 8.19982 20.5105 7.53624 21 6.78Z" fill="black"/>
</svg>
